<svg version="1.1" id="Layer_1" xmlns="http://www.w3.org/2000/svg" xmlns:xlink="http://www.w3.org/1999/xlink" x="0px" y="0px"
	 width="100%" viewBox="0 0 126 104" enable-background="new 0 0 126 104" xml:space="preserve">
<path fill="#FDFEFF" opacity="1.000000" stroke="none" 
	d="
M77.000000,105.000000 
	C51.333332,105.000000 26.166666,105.000000 1.000000,105.000000 
	C1.000000,70.333336 1.000000,35.666668 1.000000,1.000000 
	C43.000000,1.000000 85.000000,1.000000 127.000000,1.000000 
	C127.000000,35.666668 127.000000,70.333336 127.000000,105.000000 
	C110.500000,105.000000 94.000000,105.000000 77.000000,105.000000 
M30.616302,81.900658 
	C31.845722,86.518982 33.075138,91.137299 34.325573,95.834557 
	C40.249542,95.834557 45.880188,95.834557 51.860462,95.834557 
	C56.999512,77.353081 62.134956,58.884575 67.655197,39.032215 
	C73.202675,58.822628 78.380981,77.296051 83.624329,96.001488 
	C88.250008,96.001488 92.573174,95.790459 96.864403,96.069801 
	C100.160004,96.284348 101.380013,95.067490 102.188400,91.889832 
	C106.650139,74.351143 111.392738,56.883957 116.027977,39.389324 
	C118.486809,30.109039 120.923210,20.822811 123.463425,11.183783 
	C116.784424,11.183783 110.700325,11.183783 104.422348,11.183783 
	C100.155838,30.752417 95.936852,50.103062 91.717865,69.453712 
	C91.409004,69.484535 91.100143,69.515358 90.791275,69.546181 
	C85.719742,50.065525 80.648209,30.584869 75.526344,10.910865 
	C71.489403,10.910865 67.818741,11.164886 64.200325,10.838941 
	C60.629799,10.517310 59.430241,11.891767 58.593903,15.306826 
	C54.119061,33.579300 49.318962,51.772118 44.277481,71.367661 
	C39.635105,50.334843 35.289631,30.647179 30.978416,11.114723 
	C24.294130,11.114723 18.331917,11.114723 11.878907,11.114723 
	C18.078041,34.662647 24.195545,57.900505 30.616302,81.900658 
z"/>
<path fill="#3864E3" opacity="1.000000" stroke="none" 
	d="
M30.464676,81.519508 
	C24.195545,57.900505 18.078041,34.662647 11.878907,11.114723 
	C18.331917,11.114723 24.294130,11.114723 30.978416,11.114723 
	C35.289631,30.647179 39.635105,50.334843 44.277481,71.367661 
	C49.318962,51.772118 54.119061,33.579300 58.593903,15.306826 
	C59.430241,11.891767 60.629799,10.517310 64.200325,10.838941 
	C67.818741,11.164886 71.489403,10.910865 75.526344,10.910865 
	C80.648209,30.584869 85.719742,50.065525 90.791275,69.546181 
	C91.100143,69.515358 91.409004,69.484535 91.717865,69.453712 
	C95.936852,50.103062 100.155838,30.752417 104.422348,11.183783 
	C110.700325,11.183783 116.784424,11.183783 123.463425,11.183783 
	C120.923210,20.822811 118.486809,30.109039 116.027977,39.389324 
	C111.392738,56.883957 106.650139,74.351143 102.188400,91.889832 
	C101.380013,95.067490 100.160004,96.284348 96.864403,96.069801 
	C92.573174,95.790459 88.250008,96.001488 83.624329,96.001488 
	C78.380981,77.296051 73.202675,58.822628 67.655197,39.032215 
	C62.134956,58.884575 56.999512,77.353081 51.860462,95.834557 
	C45.880188,95.834557 40.249542,95.834557 34.325573,95.834557 
	C33.075138,91.137299 31.845722,86.518982 30.464676,81.519508 
z"/>
</svg>