 <svg version="1.0" xmlns="http://www.w3.org/2000/svg"  width="300.000000pt" height="87.000000pt" viewBox="0 0 300.000000 87.000000"  preserveAspectRatio="xMidYMid meet">  <g transform="translate(0.000000,87.000000) scale(0.100000,-0.100000)" fill="#000000" stroke="none"> <path d="M850 555 c0 -3 -1 -67 -1 -142 l0 -138 25 -3 c26 -3 26 -2 26 61 0 49 5 70 19 88 16 20 23 22 38 13 14 -9 19 -27 21 -88 3 -76 3 -77 28 -74 13 2 24 6 24 11 0 4 0 43 0 86 0 59 -4 84 -16 95 -20 21 -73 20 -96 -1 -17 -15 -18 -14 -18 40 0 54 -1 57 -25 57 -14 0 -25 -2 -25 -5z"/> <path d="M1660 415 l0 -145 30 0 30 0 0 74 c0 81 16 110 48 89 13 -8 18 -28 20 -87 l3 -76 31 0 30 0 -4 91 c-3 75 -8 94 -23 105 -26 19 -75 18 -97 -3 -18 -16 -18 -15 -12 40 l7 57 -32 0 -31 0 0 -145z"/> <path d="M469 546 c-3 -3 10 -67 30 -141 l35 -136 31 3 c29 3 31 5 50 90 11 49 23 88 26 88 3 0 15 -39 26 -87 19 -85 20 -88 50 -91 l30 -3 33 123 c18 68 35 131 38 141 4 16 0 18 -29 15 l-33 -3 -20 -94 c-11 -52 -22 -88 -25 -80 -3 8 -14 50 -26 94 -18 73 -22 80 -44 80 -23 0 -27 -7 -47 -88 -12 -49 -24 -90 -26 -93 -3 -2 -13 37 -24 88 -18 86 -21 93 -44 96 -14 2 -28 0 -31 -2z"/> <path d="M1410 518 c0 -30 1 -31 40 -25 l40 5 0 -114 0 -114 30 0 30 0 0 114 0 113 38 -1 c33 -1 37 2 37 24 0 25 0 25 -107 27 l-108 2 0 -31z"/> <path d="M2141 524 c-61 -51 -64 -163 -5 -221 28 -29 39 -33 84 -33 46 0 56 4 86 34 43 43 44 66 5 66 -20 0 -34 -8 -45 -25 -21 -32 -65 -33 -92 -4 -29 32 -26 115 5 140 31 26 57 24 85 -6 14 -14 34 -25 50 -25 30 0 31 2 11 40 -32 62 -129 80 -184 34z"/> <path d="M2353 538 c3 -7 25 -70 48 -140 l43 -128 36 0 36 0 42 128 c23 70 42 132 42 137 0 6 -14 10 -32 10 l-31 0 -26 -102 c-14 -56 -28 -100 -32 -98 -3 3 -9 19 -13 37 -3 17 -15 62 -27 100 -20 67 -20 68 -55 68 -25 0 -34 -4 -31 -12z"/> <path d="M1300 505 c0 -16 -6 -25 -15 -25 -8 0 -15 -9 -15 -20 0 -11 7 -20 15 -20 12 0 15 -14 15 -67 0 -38 4 -74 9 -81 4 -8 27 -16 50 -19 39 -5 41 -4 41 21 0 19 -5 26 -20 26 -18 0 -20 7 -20 60 0 52 2 60 18 58 11 -2 18 4 20 20 3 17 -2 22 -17 22 -16 0 -21 6 -21 25 0 21 -5 25 -30 25 -25 0 -30 -4 -30 -25z"/> <path d="M1093 463 c-33 -22 -29 -43 7 -43 17 0 30 5 30 11 0 17 54 6 58 -12 2 -13 -8 -17 -43 -21 -81 -10 -112 -66 -59 -107 30 -24 64 -27 83 -8 11 10 14 10 18 0 3 -7 18 -13 34 -13 l29 0 0 69 c0 71 -12 120 -33 133 -21 13 -101 8 -124 -9z m97 -118 c0 -18 -34 -37 -54 -29 -16 6 -21 26 -9 37 13 14 63 7 63 -8z"/> <path d="M1903 456 c-24 -20 -28 -32 -28 -73 0 -63 24 -100 70 -109 19 -3 46 -3 60 0 27 7 65 39 65 56 0 16 -52 11 -71 -6 -17 -15 -20 -15 -44 0 -41 27 -29 36 46 36 l72 0 -6 36 c-4 20 -16 47 -28 60 -31 33 -97 33 -136 0z m95 -28 c21 -21 13 -28 -28 -28 -22 0 -40 4 -40 8 0 14 23 32 40 32 9 0 21 -5 28 -12z"/> </g> </svg> 